<svg width="121" height="77" viewBox="0 0 121 77" fill="none" xmlns="http://www.w3.org/2000/svg">
<path d="M60.393 1.8877H60.388C56.4005 1.8877 53.168 5.1202 53.168 9.1077V19.9177C53.168 23.9052 56.4005 27.1377 60.388 27.1377H60.393C64.3805 27.1377 67.613 23.9052 67.613 19.9177V9.1077C67.613 5.1202 64.3805 1.8877 60.393 1.8877Z" stroke="#4A2502" stroke-width="1.5" stroke-linecap="round" stroke-linejoin="round"/>
<path d="M79.6488 1.8877H79.6438C75.6563 1.8877 72.4238 5.1202 72.4238 9.1077V19.9177C72.4238 23.9052 75.6563 27.1377 79.6438 27.1377H79.6488C83.6363 27.1377 86.8688 23.9052 86.8688 19.9177V9.1077C86.8688 5.1202 83.6363 1.8877 79.6488 1.8877Z" stroke="#4A2502" stroke-width="1.5" stroke-linecap="round" stroke-linejoin="round"/>
<path d="M47.9726 1.8877H35.6476V11.1727H42.0376C45.3726 11.1727 48.4726 13.8777 48.4726 17.2127V20.8677C48.4726 24.3327 45.2726 27.1377 41.8076 27.1377H41.4126C37.9476 27.1377 35.1426 24.3327 35.1426 20.8677" stroke="#4A2502" stroke-width="1.5" stroke-linecap="round" stroke-linejoin="round"/>
<path d="M53.7676 22.0727L67.1776 7.34265" stroke="#4A2502" stroke-width="1.25" stroke-miterlimit="10" stroke-linecap="round"/>
<path d="M72.9375 22.0728L86.3475 7.34277" stroke="#4A2502" stroke-width="1.25" stroke-miterlimit="10" stroke-linecap="round"/>
<path d="M38.0285 55.1927C38.0285 59.4877 34.5485 62.9677 30.2535 62.9677C25.9585 62.9677 22.4785 59.4877 22.4785 55.1927V43.5577C22.4785 39.2627 25.9585 35.7827 30.2535 35.7827C34.5485 35.7827 38.0285 39.2627 38.0285 43.5577" stroke="#4A2502" stroke-width="1.5" stroke-linecap="round" stroke-linejoin="round"/>
<path d="M43.2383 63.0625V55.3675V35.8375" stroke="#4A2502" stroke-width="1.5" stroke-linecap="round" stroke-linejoin="round"/>
<path d="M57.7383 35.6875L43.2383 55.3675" stroke="#4A2502" stroke-width="1.5" stroke-linecap="round" stroke-linejoin="round"/>
<path d="M58.3345 63.0626L48.5645 48.4126" stroke="#4A2502" stroke-width="1.5" stroke-linecap="round" stroke-linejoin="round"/>
<path d="M77.7068 63.2125V35.9825L62.4668 63.2125V35.9825" stroke="#4A2502" stroke-width="1.5" stroke-linecap="round" stroke-linejoin="round"/>
<path d="M98.6228 63.2124V35.9824L91.0028 53.0974L83.3828 35.9824V63.2124" stroke="#4A2502" stroke-width="1.5" stroke-linecap="round" stroke-linejoin="round"/>
<path d="M1.59766 55.4178C1.59766 59.7128 5.07766 63.1928 9.37266 63.1928C13.6677 63.1928 17.1477 59.7128 17.1477 55.4178V43.7828C17.1477 39.4878 13.6677 36.0078 9.37266 36.0078C5.07766 36.0078 1.59766 39.4878 1.59766 43.7828" stroke="#4A2502" stroke-width="1.5" stroke-linecap="round" stroke-linejoin="round"/>
<path d="M7.88206 50.4679C7.88206 50.4679 7.75206 47.8279 10.2021 47.8279C12.6521 47.8279 12.5721 50.6329 12.5721 50.6329C12.5721 51.9129 13.6121 52.9529 14.8921 52.9529C16.1721 52.9529 17.2121 51.9129 17.2121 50.6329V47.8179" stroke="#4A2502" stroke-width="1.25" stroke-miterlimit="10" stroke-linecap="round"/>
<path d="M119.027 55.1922C119.027 59.4872 115.547 62.9672 111.252 62.9672C106.957 62.9672 103.477 59.4872 103.477 55.1922V43.5572C103.477 39.2622 106.957 35.7822 111.252 35.7822C115.547 35.7822 119.027 39.2622 119.027 43.5572" stroke="#4A2502" stroke-width="1.5" stroke-linecap="round" stroke-linejoin="round"/>
<path d="M7.19727 66.5776V73.2126C7.19727 74.4126 8.17227 75.3876 9.37227 75.3876C10.5723 75.3876 11.5473 74.4126 11.5473 73.2126V66.5776" stroke="#4A2502" stroke-width="1.25" stroke-miterlimit="10" stroke-linecap="round"/>
<path d="M109.078 66.5781V73.2131C109.078 74.4131 110.053 75.3881 111.253 75.3881C112.453 75.3881 113.428 74.4131 113.428 73.2131V66.5781" stroke="#4A2502" stroke-width="1.25" stroke-miterlimit="10" stroke-linecap="round"/>
<path d="M19.8087 75.5127V74.7782C20.2052 74.8042 20.3417 74.6157 20.4717 73.9267C20.6797 72.8477 20.7512 71.3982 20.7772 70.8327H23.9687V75.5127H23.0847V71.6582H21.5897C21.5572 72.1457 21.4792 73.2962 21.2842 74.2517C21.1022 75.1812 20.8292 75.7142 19.8087 75.5127ZM25.3042 75.5127L26.7342 70.8327H28.0537L29.4837 75.5127H28.5737L28.2715 74.5377H26.51L26.2142 75.5127H25.3042ZM27.3842 71.6614L26.7602 73.7122H28.018L27.3842 71.6614ZM33.6477 73.0524C34.0865 73.2344 34.3042 73.6472 34.3042 74.0957C34.3042 74.9342 33.8427 75.5127 32.8872 75.5127H30.8137V70.8327H32.6857C33.6867 70.8327 34.0897 71.5282 34.0897 72.1457C34.0897 72.5714 33.924 72.8834 33.6477 73.0524ZM32.6727 71.6582H31.7107V72.6592H32.6727C32.9717 72.6592 33.1927 72.5097 33.1927 72.1652C33.1927 71.8792 33.0107 71.6582 32.6727 71.6582ZM31.7107 74.6807H32.7962C33.1537 74.6807 33.4137 74.4402 33.4137 74.0632C33.4137 73.7317 33.2057 73.4847 32.7962 73.4847H31.7107V74.6807ZM39.5674 75.5127H38.4721L36.9089 73.6049L36.5514 73.9982V75.5127H35.6999V70.8327H36.5514V72.7957L38.3649 70.8327H39.4439L37.4874 72.9712L39.5674 75.5127ZM40.4451 75.5127L41.8751 70.8327H43.1946L44.6246 75.5127H43.7146L43.4124 74.5377H41.6509L41.3551 75.5127H40.4451ZM42.5251 71.6614L41.9011 73.7122H43.1589L42.5251 71.6614ZM48.8289 75.5127H48.0034V70.8327H48.7964L50.3434 73.9397L51.8904 70.8327H52.6834V75.5127H51.8579V72.7177L50.4994 75.5127H50.1874L48.8289 72.7177V75.5127ZM56.3517 75.6102C54.9477 75.6102 54.0832 74.6287 54.0832 73.1727C54.0832 71.7167 54.9477 70.7352 56.3517 70.7352C57.7557 70.7352 58.6202 71.7167 58.6202 73.1727C58.6202 74.6287 57.7557 75.6102 56.3517 75.6102ZM56.3517 74.7782C57.2422 74.7912 57.6842 74.1477 57.6842 73.1727C57.6842 72.1977 57.2422 71.5802 56.3517 71.5672C55.4612 71.5542 55.0192 72.1977 55.0192 73.1727C55.0192 74.1477 55.4612 74.7652 56.3517 74.7782ZM60.9005 75.5127H60.0165V70.8327H61.9925C62.0835 70.8327 62.259 70.8392 62.3825 70.8587C63.221 70.9887 63.5915 71.5932 63.5915 72.3797C63.5915 73.1662 63.2145 73.7707 62.3825 73.9007C62.259 73.9202 62.077 73.9267 61.9925 73.9267H60.9005V75.5127ZM60.9005 71.6582V73.1012H61.9535C62.0445 73.1012 62.1615 73.0947 62.2525 73.0687C62.61 72.9712 62.701 72.6332 62.701 72.3797C62.701 72.1262 62.61 71.7882 62.2525 71.6907C62.1615 71.6647 62.0445 71.6582 61.9535 71.6582H60.9005ZM67 75.6102C65.596 75.6102 64.7315 74.6287 64.7315 73.1727C64.7315 71.7167 65.596 70.7352 67 70.7352C68.404 70.7352 69.2685 71.7167 69.2685 73.1727C69.2685 74.6287 68.404 75.6102 67 75.6102ZM67 74.7782C67.8905 74.7912 68.3325 74.1477 68.3325 73.1727C68.3325 72.1977 67.8905 71.5802 67 71.5672C66.1095 71.5542 65.6675 72.1977 65.6675 73.1727C65.6675 74.1477 66.1095 74.7652 67 74.7782ZM71.0366 75.5127H69.9511L71.6086 73.1402L70.0746 70.8327H71.1211L72.4471 72.9257V70.8327H73.3311V72.9257L74.6571 70.8327H75.7036L74.1696 73.1402L75.8271 75.5127H74.7416L73.3311 73.4457V75.5127H72.4471V73.4457L71.0366 75.5127ZM77.9775 74.6872H80.1485V75.5127H77.0935V70.8327H80.1485V71.6582H77.9775V72.6592H79.7585V73.4847H77.9775V74.6872ZM82.559 75.5127H81.675V70.8327H82.559V72.7567H84.652V70.8327H85.536V75.5127H84.652V73.5822H82.559V75.5127ZM89.2044 75.6102C87.8004 75.6102 86.9359 74.6287 86.9359 73.1727C86.9359 71.7167 87.8004 70.7352 89.2044 70.7352C90.6084 70.7352 91.4729 71.7167 91.4729 73.1727C91.4729 74.6287 90.6084 75.6102 89.2044 75.6102ZM89.2044 74.7782C90.0949 74.7912 90.5369 74.1477 90.5369 73.1727C90.5369 72.1977 90.0949 71.5802 89.2044 71.5672C88.3139 71.5542 87.8719 72.1977 87.8719 73.1727C87.8719 74.1477 88.3139 74.7652 89.2044 74.7782ZM93.7532 75.5127H92.8692V70.8327H95.9242V71.6582H93.7532V75.5127ZM99.1989 75.6102C97.7949 75.6102 96.9304 74.6287 96.9304 73.1727C96.9304 71.7167 97.7949 70.7352 99.1989 70.7352C100.603 70.7352 101.467 71.7167 101.467 73.1727C101.467 74.6287 100.603 75.6102 99.1989 75.6102ZM99.1989 74.7782C100.089 74.7912 100.531 74.1477 100.531 73.1727C100.531 72.1977 100.089 71.5802 99.1989 71.5672C98.3084 71.5542 97.8664 72.1977 97.8664 73.1727C97.8664 74.1477 98.3084 74.7652 99.1989 74.7782Z" fill="#DA9100"/>
</svg>
