<svg width="121" height="77" viewBox="0 0 121 77" fill="none" xmlns="http://www.w3.org/2000/svg">
<path d="M60.393 1.8877H60.388C56.4005 1.8877 53.168 5.1202 53.168 9.1077V19.9177C53.168 23.9052 56.4005 27.1377 60.388 27.1377H60.393C64.3805 27.1377 67.613 23.9052 67.613 19.9177V9.1077C67.613 5.1202 64.3805 1.8877 60.393 1.8877Z" stroke="#4A2502" stroke-width="1.5" stroke-linecap="round" stroke-linejoin="round"/>
<path d="M79.6488 1.8877H79.6438C75.6563 1.8877 72.4238 5.1202 72.4238 9.1077V19.9177C72.4238 23.9052 75.6563 27.1377 79.6438 27.1377H79.6488C83.6363 27.1377 86.8688 23.9052 86.8688 19.9177V9.1077C86.8688 5.1202 83.6363 1.8877 79.6488 1.8877Z" stroke="#4A2502" stroke-width="1.5" stroke-linecap="round" stroke-linejoin="round"/>
<path d="M47.9726 1.8877H35.6476V11.1727H42.0376C45.3726 11.1727 48.4726 13.8777 48.4726 17.2127V20.8677C48.4726 24.3327 45.2726 27.1377 41.8076 27.1377H41.4126C37.9476 27.1377 35.1426 24.3327 35.1426 20.8677" stroke="#4A2502" stroke-width="1.5" stroke-linecap="round" stroke-linejoin="round"/>
<path d="M53.7676 22.0727L67.1776 7.34265" stroke="#4A2502" stroke-width="1.25" stroke-miterlimit="10" stroke-linecap="round"/>
<path d="M72.9375 22.0728L86.3475 7.34277" stroke="#4A2502" stroke-width="1.25" stroke-miterlimit="10" stroke-linecap="round"/>
<path d="M38.0285 55.1927C38.0285 59.4877 34.5485 62.9677 30.2535 62.9677C25.9585 62.9677 22.4785 59.4877 22.4785 55.1927V43.5577C22.4785 39.2627 25.9585 35.7827 30.2535 35.7827C34.5485 35.7827 38.0285 39.2627 38.0285 43.5577" stroke="#4A2502" stroke-width="1.5" stroke-linecap="round" stroke-linejoin="round"/>
<path d="M43.2383 63.0625V55.3675V35.8375" stroke="#4A2502" stroke-width="1.5" stroke-linecap="round" stroke-linejoin="round"/>
<path d="M57.7383 35.6875L43.2383 55.3675" stroke="#4A2502" stroke-width="1.5" stroke-linecap="round" stroke-linejoin="round"/>
<path d="M58.3345 63.0626L48.5645 48.4126" stroke="#4A2502" stroke-width="1.5" stroke-linecap="round" stroke-linejoin="round"/>
<path d="M77.7068 63.2125V35.9825L62.4668 63.2125V35.9825" stroke="#4A2502" stroke-width="1.5" stroke-linecap="round" stroke-linejoin="round"/>
<path d="M98.6228 63.2124V35.9824L91.0028 53.0974L83.3828 35.9824V63.2124" stroke="#4A2502" stroke-width="1.5" stroke-linecap="round" stroke-linejoin="round"/>
<path d="M1.59766 55.4178C1.59766 59.7128 5.07766 63.1928 9.37266 63.1928C13.6677 63.1928 17.1477 59.7128 17.1477 55.4178V43.7828C17.1477 39.4878 13.6677 36.0078 9.37266 36.0078C5.07766 36.0078 1.59766 39.4878 1.59766 43.7828" stroke="#4A2502" stroke-width="1.5" stroke-linecap="round" stroke-linejoin="round"/>
<path d="M7.88206 50.4679C7.88206 50.4679 7.75206 47.8279 10.2021 47.8279C12.6521 47.8279 12.5721 50.6329 12.5721 50.6329C12.5721 51.9129 13.6121 52.9529 14.8921 52.9529C16.1721 52.9529 17.2121 51.9129 17.2121 50.6329V47.8179" stroke="#4A2502" stroke-width="1.25" stroke-miterlimit="10" stroke-linecap="round"/>
<path d="M7.19727 66.5776V73.2126C7.19727 74.4126 8.17227 75.3876 9.37227 75.3876C10.5723 75.3876 11.5473 74.4126 11.5473 73.2126V66.5776" stroke="#4A2502" stroke-width="1.25" stroke-miterlimit="10" stroke-linecap="round"/>
<path d="M109.078 66.5781V73.2131C109.078 74.4131 110.053 75.3881 111.253 75.3881C112.453 75.3881 113.428 74.4131 113.428 73.2131V66.5781" stroke="#4A2502" stroke-width="1.25" stroke-miterlimit="10" stroke-linecap="round"/>
<path d="M20.6213 76.0127H19.4418L17.7583 73.9582L17.3733 74.3817V76.0127H16.4563V70.9727H17.3733V73.0867L19.3263 70.9727H20.4883L18.3813 73.2757L20.6213 76.0127ZM22.0636 76.0127H21.1116V70.9727H23.2396C23.3376 70.9727 23.5266 70.9797 23.6596 71.0007C24.5626 71.1407 24.9616 71.7917 24.9616 72.6387C24.9616 73.4857 24.5556 74.1367 23.6596 74.2767C23.5266 74.2977 23.3306 74.3047 23.2396 74.3047H22.0636V76.0127ZM22.0636 71.8617V73.4157H23.1976C23.2956 73.4157 23.4216 73.4087 23.5196 73.3807C23.9046 73.2757 24.0026 72.9117 24.0026 72.6387C24.0026 72.3657 23.9046 72.0017 23.5196 71.8967C23.4216 71.8687 23.2956 71.8617 23.1976 71.8617H22.0636ZM24.8973 76.0127L26.4373 70.9727H27.8583L29.3983 76.0127H28.4183L28.0928 74.9627H26.1958L25.8773 76.0127H24.8973ZM27.1373 71.8652L26.4653 74.0737H27.8198L27.1373 71.8652ZM32.4859 76.0127H31.5409V75.2777C30.5049 75.4527 29.6089 74.7527 29.6089 73.3527C29.6089 71.9527 30.5049 71.2177 31.5409 71.3927V70.9727H32.4859V71.3927C33.5219 71.2177 34.4249 71.9527 34.4249 73.3527C34.4249 74.7527 33.5219 75.4527 32.4859 75.2777V76.0127ZM31.5409 74.4097V72.2467C30.7429 72.1207 30.5749 72.7927 30.5749 73.3527C30.5749 73.9127 30.7429 74.5357 31.5409 74.4097ZM32.4859 72.2467V74.4097C33.2769 74.5357 33.4589 73.9057 33.4589 73.3807C33.4589 72.8557 33.2769 72.1207 32.4859 72.2467ZM37.1095 76.0127H36.1575V71.8617H34.5685V70.9727H38.6985V71.8617H37.1095V76.0127ZM41.424 76.1177C39.912 76.1177 38.981 75.0607 38.981 73.4927C38.981 71.9247 39.912 70.8677 41.424 70.8677C42.936 70.8677 43.867 71.9247 43.867 73.4927C43.867 75.0607 42.936 76.1177 41.424 76.1177ZM41.424 75.2217C42.383 75.2357 42.859 74.5427 42.859 73.4927C42.859 72.4427 42.383 71.7777 41.424 71.7637C40.465 71.7497 39.989 72.4427 39.989 73.4927C39.989 74.5427 40.465 75.2077 41.424 75.2217ZM47.6177 73.3632C48.0902 73.5592 48.3247 74.0037 48.3247 74.4867C48.3247 75.3897 47.8277 76.0127 46.7987 76.0127H44.5657V70.9727H46.5817C47.6597 70.9727 48.0937 71.7217 48.0937 72.3867C48.0937 72.8452 47.9152 73.1812 47.6177 73.3632ZM46.5677 71.8617H45.5317V72.9397H46.5677C46.8897 72.9397 47.1277 72.7787 47.1277 72.4077C47.1277 72.0997 46.9317 71.8617 46.5677 71.8617ZM45.5317 75.1167H46.7007C47.0857 75.1167 47.3657 74.8577 47.3657 74.4517C47.3657 74.0947 47.1417 73.8287 46.7007 73.8287H45.5317V75.1167ZM51.1857 76.1177C49.6737 76.1177 48.7427 75.0607 48.7427 73.4927C48.7427 71.9247 49.6737 70.8677 51.1857 70.8677C52.6977 70.8677 53.6287 71.9247 53.6287 73.4927C53.6287 75.0607 52.6977 76.1177 51.1857 76.1177ZM51.1857 75.2217C52.1447 75.2357 52.6207 74.5427 52.6207 73.4927C52.6207 72.4427 52.1447 71.7777 51.1857 71.7637C50.2267 71.7497 49.7507 72.4427 49.7507 73.4927C49.7507 74.5427 50.2267 75.2077 51.1857 75.2217ZM55.2794 75.1237H57.6174V76.0127H54.3274V70.9727H57.6174V71.8617H55.2794V72.9397H57.1974V73.8287H55.2794V75.1237ZM60.7467 76.0127H59.8577V70.9727H60.7117L62.3777 74.3187L64.0437 70.9727H64.8977V76.0127H64.0087V73.0027L62.5457 76.0127H62.2097L60.7467 73.0027V76.0127ZM68.0431 76.1177C66.5311 76.1177 65.6001 75.0607 65.6001 73.4927C65.6001 71.9247 66.5311 70.8677 68.0431 70.8677C69.5551 70.8677 70.4861 71.9247 70.4861 73.4927C70.4861 75.0607 69.5551 76.1177 68.0431 76.1177ZM68.0431 75.2217C69.0021 75.2357 69.4781 74.5427 69.4781 73.4927C69.4781 72.4427 69.0021 71.7777 68.0431 71.7637C67.0841 71.7497 66.6081 72.4427 66.6081 73.4927C66.6081 74.5427 67.0841 75.2077 68.0431 75.2217ZM72.1368 76.0127H71.1848V70.9727H73.3128C73.4108 70.9727 73.5998 70.9797 73.7328 71.0007C74.6358 71.1407 75.0348 71.7917 75.0348 72.6387C75.0348 73.4857 74.6288 74.1367 73.7328 74.2767C73.5998 74.2977 73.4038 74.3047 73.3128 74.3047H72.1368V76.0127ZM72.1368 71.8617V73.4157H73.2708C73.3688 73.4157 73.4948 73.4087 73.5928 73.3807C73.9778 73.2757 74.0758 72.9117 74.0758 72.6387C74.0758 72.3657 73.9778 72.0017 73.5928 71.8967C73.4948 71.8687 73.3688 71.8617 73.2708 71.8617H72.1368ZM77.9006 76.1177C76.3886 76.1177 75.4576 75.0607 75.4576 73.4927C75.4576 71.9247 76.3886 70.8677 77.9006 70.8677C79.4126 70.8677 80.3436 71.9247 80.3436 73.4927C80.3436 75.0607 79.4126 76.1177 77.9006 76.1177ZM77.9006 75.2217C78.8596 75.2357 79.3356 74.5427 79.3356 73.4927C79.3356 72.4427 78.8596 71.7777 77.9006 71.7637C76.9416 71.7497 76.4656 72.4427 76.4656 73.4927C76.4656 74.5427 76.9416 75.2077 77.9006 75.2217ZM81.4426 76.0127H80.2736L82.0586 73.4577L80.4066 70.9727H81.5336L82.9616 73.2267V70.9727H83.9136V73.2267L85.3416 70.9727H86.4686L84.8166 73.4577L86.6016 76.0127H85.4326L83.9136 73.7867V76.0127H82.9616V73.7867L81.4426 76.0127ZM88.1124 75.1237H90.4504V76.0127H87.1604V70.9727H90.4504V71.8617H88.1124V72.9397H90.0304V73.8287H88.1124V75.1237ZM92.2413 76.0127H91.2893V70.9727H92.2413V73.0447H94.4953V70.9727H95.4473V76.0127H94.4953V73.9337H92.2413V76.0127ZM98.5929 76.1177C97.0809 76.1177 96.1499 75.0607 96.1499 73.4927C96.1499 71.9247 97.0809 70.8677 98.5929 70.8677C100.105 70.8677 101.036 71.9247 101.036 73.4927C101.036 75.0607 100.105 76.1177 98.5929 76.1177ZM98.5929 75.2217C99.5519 75.2357 100.028 74.5427 100.028 73.4927C100.028 72.4427 99.5519 71.7777 98.5929 71.7637C97.6339 71.7497 97.1579 72.4427 97.1579 73.4927C97.1579 74.5427 97.6339 75.2077 98.5929 75.2217ZM102.687 75.1237H105.025V76.0127H101.735V70.9727H105.025V71.8617H102.687V72.9397H104.605V73.8287H102.687V75.1237Z" fill="#DA9100"/>
<rect x="103.848" y="35.6299" width="15.6738" height="27.583" rx="7.83691" stroke="#4A2502" stroke-width="1.5" stroke-linecap="round" stroke-linejoin="round"/>
</svg>
