<svg width="102" height="100" viewBox="0 0 102 100" fill="none" xmlns="http://www.w3.org/2000/svg">
<path d="M45.9619 75.4292V90.4499C45.9619 93.1666 48.1873 95.3738 50.9262 95.3738C53.6651 95.3738 55.8905 93.1666 55.8905 90.4499V75.4292" stroke="#4A2502" stroke-width="1.5" stroke-miterlimit="10" stroke-linecap="round"/>
<path d="M33.1807 50.1643C33.1807 59.8876 41.1235 67.7658 50.9265 67.7658C60.7295 67.7658 68.6723 59.8876 68.6723 50.1643V23.8242C68.6723 14.1009 60.7295 6.22266 50.9265 6.22266C41.1235 6.22266 33.1807 14.1009 33.1807 23.8242" stroke="#4A2502" stroke-width="1.5" stroke-linecap="round" stroke-linejoin="round"/>
<path d="M47.5242 38.9597C47.5242 38.9597 47.2275 32.9831 52.8194 32.9831C58.4114 32.9831 58.2288 39.3332 58.2288 39.3332C58.2288 42.231 60.6025 44.5854 63.524 44.5854C66.4455 44.5854 68.8192 42.231 68.8192 39.3332V32.9604" stroke="#4A2502" stroke-width="1.5" stroke-miterlimit="10" stroke-linecap="round"/>
<path fill-rule="evenodd" clip-rule="evenodd" d="M50.7722 54.0808C49.1794 54.1643 47.8578 55.2887 47.3957 56.2673C47.2233 56.6324 46.7852 56.7897 46.4171 56.6187C46.0491 56.4477 45.8904 56.0132 46.0628 55.6481C46.73 54.2352 48.5024 52.738 50.6944 52.6229C52.9755 52.5033 55.4356 53.8765 57.4601 57.6742C57.6501 58.0306 57.5129 58.4723 57.1536 58.6607C56.7943 58.8491 56.349 58.713 56.159 58.3566C54.2913 54.8532 52.2759 54.0019 50.7722 54.0808Z" fill="#4A2502"/>
<path d="M42.2074 44.7297C42.2412 43.7488 43.0703 42.9808 44.0592 43.0142C45.0482 43.0477 45.8226 43.8701 45.7888 44.851L45.7397 46.2768C45.706 47.2578 44.8769 48.0258 43.8879 47.9923C42.8989 47.9588 42.1246 47.1365 42.1583 46.1556L42.2074 44.7297Z" fill="#4A2502"/>
<path d="M55.5326 44.2742C55.5664 43.2932 56.3955 42.5252 57.3844 42.5587C58.3734 42.5922 59.1477 43.4145 59.114 44.3954L59.0649 45.8213C59.0311 46.8022 58.2021 47.5702 57.2131 47.5368C56.2241 47.5033 55.4498 46.6809 55.4835 45.7L55.5326 44.2742Z" fill="#4A2502"/>
</svg>
