<svg width="102" height="100" viewBox="0 0 102 100" fill="none" xmlns="http://www.w3.org/2000/svg">
  <path
    d="M45.962 75.4287V90.4494C45.962 93.1661 48.1873 95.3734 50.9262 95.3734C53.6652 95.3734 55.8905 93.1661 55.8905 90.4494V75.4287"
    stroke="#4A2502" stroke-width="1.5" stroke-miterlimit="10" stroke-linecap="round" />
  <path
    d="M33.1809 50.1643C33.1809 59.8876 41.1237 67.7658 50.9268 67.7658C60.7298 67.7658 68.6726 59.8876 68.6726 50.1643V23.8242C68.6726 14.1009 60.7298 6.22266 50.9268 6.22266C41.1237 6.22266 33.1809 14.1009 33.1809 23.8242"
    stroke="#4A2502" stroke-width="1.5" stroke-linecap="round" stroke-linejoin="round" />
  <path
    d="M47.5241 38.9592C47.5241 38.9592 47.2274 32.9826 52.8193 32.9826C58.4113 32.9826 58.2287 39.3327 58.2287 39.3327C58.2287 42.2305 60.6024 44.5849 63.5239 44.5849C66.4454 44.5849 68.8191 42.2305 68.8191 39.3327V32.96"
    stroke="#4A2502" stroke-width="1.5" stroke-miterlimit="10" stroke-linecap="round" />
  <path
    d="M56.6105 53.9897C56.3635 55.1521 55.6755 56.2186 54.6633 57.0079C53.6511 57.7973 52.3772 58.2608 51.0583 58.3197C49.7393 58.3785 48.4566 58.0291 47.4282 57.3308C46.3999 56.6325 45.6893 55.6284 45.4173 54.4892"
    stroke="#4A2502" stroke-width="1.5" stroke-linecap="round" stroke-linejoin="round" />
  <path
    d="M60.5877 44.9579C60.4878 45.6291 60.1567 46.2454 59.6506 46.7018C59.1445 47.1583 58.4946 47.4269 57.8114 47.4619C57.1282 47.4968 56.4539 47.2961 55.9031 46.8937C55.3523 46.4913 54.959 45.9122 54.79 45.2547"
    stroke="#4A2502" stroke-width="1.5" stroke-linecap="round" stroke-linejoin="round" />
  <path
    d="M47.1225 44.9579C47.0227 45.6291 46.6916 46.2454 46.1854 46.7018C45.6793 47.1583 45.0294 47.4269 44.3463 47.4619C43.6631 47.4968 42.9888 47.2961 42.438 46.8937C41.8872 46.4913 41.4938 45.9122 41.3248 45.2547"
    stroke="#4A2502" stroke-width="1.5" stroke-linecap="round" stroke-linejoin="round" />
</svg>