<svg width="90" height="90" viewBox="0 0 90 90" fill="none" xmlns="http://www.w3.org/2000/svg">
<g clip-path="url(#clip0_2881_45461)">
<rect width="90" height="90" rx="45" fill="#F8E9CC" style="fill:#F8E9CC;fill:color(display-p3 0.9725 0.9137 0.8000);fill-opacity:1;"/>
<mask id="mask0_2881_45461" style="mask-type:alpha" maskUnits="userSpaceOnUse" x="0" y="0" width="90" height="90">
<path d="M74.955 87.3532C74.5137 87.5733 74.0524 87.7934 73.5711 87.9735C73.0697 88.1735 72.5482 88.3736 72.0067 88.5337C71.746 88.6137 71.4852 88.6937 71.2245 88.7738C69.7203 89.2139 68.0757 89.5141 66.3107 89.6741C65.8695 89.7141 65.4282 89.7541 64.987 89.7742C64.4254 89.7942 63.8237 89.8142 63.2421 89.8142C62.4198 89.8142 61.6175 89.8142 60.7952 89.8142C60.5746 89.8142 60.354 89.8142 60.1133 89.8142C54.1165 89.8542 47.9592 90.0343 42.0025 89.9942C41.822 89.9942 41.6214 89.9942 41.4409 89.9942H41.2203C41.0197 89.9942 40.8191 89.9942 40.6186 89.9942C37.3895 89.9742 34.2006 89.8742 31.1721 89.6741C31.0116 89.6541 30.8512 89.6541 30.6907 89.6341C30.45 89.6141 30.2294 89.5941 30.0088 89.5741C29.7681 89.5541 29.5475 89.5341 29.3269 89.5141C14.3649 88.2536 2.77232 83.9319 1.56894 70.3268C-1.33923 37.3742 0.686462 30.1115 0.686462 30.1115C0.666405 28.4108 1.38843 0 36.9683 0C39.3149 0 41.5612 0.0200076 43.7474 0.0800304C44.9106 0.100038 46.0538 0.140053 47.177 0.200076C48.8617 0.280107 50.5063 0.360137 52.0908 0.480183C52.7526 0.520198 53.4145 0.580221 54.0563 0.640244C78.1239 2.78106 89.9972 10.7441 89.9972 32.6124C89.9972 54.6608 90.5788 79.5703 74.955 87.3532Z" fill="#F6F4EF" style="fill:#F6F4EF;fill:color(display-p3 0.9647 0.9569 0.9373);fill-opacity:1;"/>
</mask>
<g mask="url(#mask0_2881_45461)">
<path d="M97.9997 102.926L101.5 34.9469L60.9997 19.1492C60.9997 19.1492 30.4998 6.22364 19.4998 45.4789C10.4998 63.1914 25.4998 69.8938 25.4998 69.8938L97.9997 102.926Z" fill="#F0D399" style="fill:#F0D399;fill:color(display-p3 0.9412 0.8275 0.6000);fill-opacity:1;"/>
</g>
<rect width="15.0608" height="15.0608" rx="7.53042" transform="matrix(0.722308 -0.691571 0.722308 0.691571 58.0381 40.8936)" fill="#DA9100" style="fill:#DA9100;fill:color(display-p3 0.8549 0.5686 0.0000);fill-opacity:1;"/>
<rect width="15.0608" height="15.0608" rx="7.53042" transform="matrix(0.722308 -0.691571 0.722308 0.691571 51.7881 28.0049)" fill="#E9BD66" style="fill:#E9BD66;fill:color(display-p3 0.9137 0.7412 0.4000);fill-opacity:1;"/>
<rect width="15.0608" height="15.0608" rx="7.53042" transform="matrix(0.722308 -0.691571 0.722308 0.691571 21.9805 25.2432)" fill="#E9BD66" style="fill:#E9BD66;fill:color(display-p3 0.9137 0.7412 0.4000);fill-opacity:1;"/>
<rect width="15.0608" height="15.0608" rx="7.53042" transform="matrix(0.722308 -0.691571 0.722308 0.691571 37.3652 21.5605)" fill="#DA9100" style="fill:#DA9100;fill:color(display-p3 0.8549 0.5686 0.0000);fill-opacity:1;"/>
<rect width="15.0608" height="15.0608" rx="7.53042" transform="matrix(0.722308 -0.691571 0.722308 0.691571 57.0771 55.624)" fill="#E9BD66" style="fill:#E9BD66;fill:color(display-p3 0.9137 0.7412 0.4000);fill-opacity:1;"/>
<rect width="15.0608" height="15.0608" rx="7.53042" transform="matrix(0.722308 -0.691571 0.722308 0.691571 46.5 65.751)" fill="#DA9100" style="fill:#DA9100;fill:color(display-p3 0.8549 0.5686 0.0000);fill-opacity:1;"/>
<rect width="15.0608" height="15.0608" rx="7.53042" transform="matrix(0.722308 -0.691571 0.722308 0.691571 11.4043 36.291)" fill="#DA9100" style="fill:#DA9100;fill:color(display-p3 0.8549 0.5686 0.0000);fill-opacity:1;"/>
<rect width="15.0608" height="15.0608" rx="7.53042" transform="matrix(0.722308 -0.691571 0.722308 0.691571 10.9229 50.5605)" fill="#E9BD66" style="fill:#E9BD66;fill:color(display-p3 0.9137 0.7412 0.4000);fill-opacity:1;"/>
<rect width="15.0608" height="15.0608" rx="7.53042" transform="matrix(0.722308 -0.691571 0.722308 0.691571 31.1152 68.5127)" fill="#E9BD66" style="fill:#E9BD66;fill:color(display-p3 0.9137 0.7412 0.4000);fill-opacity:1;"/>
<rect width="15.0608" height="15.0608" rx="7.53042" transform="matrix(0.722308 -0.691571 0.722308 0.691571 16.6924 63.9092)" fill="#DA9100" style="fill:#DA9100;fill:color(display-p3 0.8549 0.5686 0.0000);fill-opacity:1;"/>
<rect width="16.6401" height="16.6401" rx="8.32003" transform="matrix(0.722308 -0.691571 0.722308 0.691571 46.9805 45.4971)" fill="#FFFBF2" style="fill:#FFFBF2;fill:color(display-p3 1.0000 0.9843 0.9490);fill-opacity:1;"/>
<rect width="16.6401" height="16.6401" rx="8.32003" transform="matrix(0.722308 -0.691571 0.722308 0.691571 24.8652 56.5449)" fill="#FFFBF2" style="fill:#FFFBF2;fill:color(display-p3 1.0000 0.9843 0.9490);fill-opacity:1;"/>
<rect width="16.6401" height="16.6401" rx="8.32003" transform="matrix(0.722308 -0.691571 0.722308 0.691571 39.2881 56.5449)" fill="#F8E9CC" style="fill:#F8E9CC;fill:color(display-p3 0.9725 0.9137 0.8000);fill-opacity:1;"/>
<rect width="16.6401" height="16.6401" rx="8.32003" transform="matrix(0.722308 -0.691571 0.722308 0.691571 41.2119 33.5293)" fill="#F8E9CC" style="fill:#F8E9CC;fill:color(display-p3 0.9725 0.9137 0.8000);fill-opacity:1;"/>
<rect width="16.6401" height="16.6401" rx="8.32003" transform="matrix(0.722308 -0.691571 0.722308 0.691571 19.0957 45.4971)" fill="#F8E9CC" style="fill:#F8E9CC;fill:color(display-p3 0.9725 0.9137 0.8000);fill-opacity:1;"/>
<rect width="16.6401" height="16.6401" rx="8.32003" transform="matrix(0.722308 -0.691571 0.722308 0.691571 25.8271 34.4492)" fill="#FFFBF2" style="fill:#FFFBF2;fill:color(display-p3 1.0000 0.9843 0.9490);fill-opacity:1;"/>
<rect width="18.8261" height="18.8261" rx="9.41303" transform="matrix(0.722308 -0.691571 0.722308 0.691571 33.5195 44.5762)" fill="#E9BD66" style="fill:#E9BD66;fill:color(display-p3 0.9137 0.7412 0.4000);fill-opacity:1;"/>
</g>
<defs>
<clipPath id="clip0_2881_45461">
<rect width="90" height="90" rx="45" fill="white" style="fill:white;fill:white;fill-opacity:1;"/>
</clipPath>
</defs>
</svg>
