<svg width="24" height="25" viewBox="0 0 24 25" fill="none" xmlns="http://www.w3.org/2000/svg">
<path d="M12 15.2002C13.6569 15.2002 15 12.357 15 10.7002C15 9.04334 13.6569 7.7002 12 7.7002C10.3431 7.7002 9 9.04334 9 10.7002C9 12.357 10.3431 15.2002 12 15.2002ZM12 15.2002C9.49979 15.2002 5 15.7002 5.12104 18.5039M12 15.2002C14.5002 15.2002 18.879 15.7002 18.879 18.5039M21 12.7002C21 17.6708 16.9706 21.7002 12 21.7002C7.02944 21.7002 3 17.6708 3 12.7002C3 7.72963 7.02944 3.7002 12 3.7002C16.9706 3.7002 21 7.72963 21 12.7002Z" stroke="#4A2502" stroke-width="1.5" stroke-linecap="round" stroke-linejoin="round"/>
</svg>
