<svg width="24" height="25" viewBox="0 0 24 25" fill="none" xmlns="http://www.w3.org/2000/svg">
<mask id="path-1-inside-1_5915_65746" fill="white">
<path d="M19.5862 16.2161C19.5178 16.1336 19.4506 16.0512 19.3847 15.9717C18.478 14.875 17.9294 14.2131 17.9294 11.1086C17.9294 9.50125 17.5449 8.18244 16.787 7.19333C16.2282 6.46262 15.4727 5.90831 14.477 5.49865C14.4642 5.49153 14.4528 5.48218 14.4432 5.47104C14.0851 4.27175 13.1051 3.46851 11.9997 3.46851C10.8944 3.46851 9.91477 4.27175 9.55663 5.4698C9.54707 5.48053 9.53579 5.48958 9.52325 5.49659C7.19967 6.45314 6.07043 8.28835 6.07043 11.1073C6.07043 14.2131 5.52271 14.875 4.6152 15.9704C4.54926 16.05 4.48209 16.1308 4.41367 16.2148C4.23695 16.428 4.12499 16.6872 4.09102 16.962C4.05706 17.2368 4.10252 17.5155 4.22203 17.7653C4.47632 18.301 5.01827 18.6336 5.63687 18.6336H18.3671C18.9828 18.6336 19.5211 18.3014 19.7762 17.7681C19.8962 17.5183 19.9421 17.2394 19.9084 16.9643C19.8748 16.6892 19.7629 16.4295 19.5862 16.2161ZM11.9997 21.9319C12.5953 21.9314 13.1796 21.7697 13.6907 21.4641C14.2018 21.1584 14.6206 20.72 14.9028 20.1956C14.9161 20.1705 14.9226 20.1423 14.9218 20.1139C14.921 20.0855 14.9129 20.0577 14.8982 20.0334C14.8835 20.009 14.8628 19.9889 14.838 19.9749C14.8133 19.961 14.7853 19.9536 14.7569 19.9537H9.24341C9.21494 19.9536 9.18694 19.9608 9.16212 19.9748C9.13729 19.9887 9.1165 20.0088 9.10177 20.0332C9.08704 20.0576 9.07887 20.0853 9.07805 20.1138C9.07723 20.1422 9.0838 20.1704 9.09711 20.1956C9.37922 20.72 9.79799 21.1583 10.309 21.4639C10.82 21.7696 11.4043 21.9313 11.9997 21.9319Z"/>
</mask>
<path d="M19.3847 15.9717L18.2286 16.9275L18.2299 16.929L19.3847 15.9717ZM16.787 7.19333L15.5955 8.10458L15.5964 8.10566L16.787 7.19333ZM14.477 5.49865L13.7479 6.80949L13.8248 6.85232L13.9063 6.88584L14.477 5.49865ZM14.4432 5.47104L13.006 5.90025L13.097 6.20518L13.3041 6.44687L14.4432 5.47104ZM9.55663 5.4698L10.6765 6.46773L10.8983 6.21883L10.9938 5.89942L9.55663 5.4698ZM9.52325 5.49659L10.0943 6.88366L10.1769 6.84963L10.255 6.80602L9.52325 5.49659ZM4.6152 15.9704L5.76998 16.9278L5.77031 16.9274L4.6152 15.9704ZM4.41367 16.2148L5.5684 17.1723L5.57715 17.1616L4.41367 16.2148ZM4.22203 17.7653L5.57716 17.1221L5.57509 17.1178L4.22203 17.7653ZM19.7762 17.7681L18.4242 17.1185L18.423 17.1209L19.7762 17.7681ZM11.9997 21.9319L11.9983 23.4319L12.0009 23.4319L11.9997 21.9319ZM14.9028 20.1956L16.2238 20.9063L16.2288 20.8968L14.9028 20.1956ZM14.7569 19.9537V21.4537H14.7584L14.7569 19.9537ZM9.24341 19.9537L9.23815 21.4537H9.24341V19.9537ZM9.09711 20.1956L7.77109 20.8969L7.77613 20.9062L9.09711 20.1956ZM20.7404 15.2581C20.6363 15.1326 20.6522 15.1503 20.5395 15.0143L18.2299 16.929C18.2491 16.9521 18.3993 17.1347 18.432 17.1741L20.7404 15.2581ZM20.5407 15.0159C20.0792 14.4577 19.8785 14.1988 19.7272 13.7817C19.5646 13.3333 19.4294 12.5958 19.4294 11.1086H16.4294C16.4294 12.7259 16.5686 13.8716 16.9069 14.8045C17.2566 15.7686 17.7834 16.389 18.2286 16.9275L20.5407 15.0159ZM19.4294 11.1086C19.4294 9.26807 18.988 7.5995 17.9777 6.28099L15.5964 8.10566C16.1019 8.76538 16.4294 9.73443 16.4294 11.1086H19.4294ZM17.9785 6.28208C17.2329 5.3072 16.2468 4.60477 15.0478 4.11147L13.9063 6.88584C14.6987 7.21185 15.2234 7.61805 15.5955 8.10458L17.9785 6.28208ZM15.2062 4.18782C15.3489 4.26719 15.4763 4.37129 15.5824 4.49521L13.3041 6.44687C13.4293 6.59306 13.5795 6.71586 13.7479 6.80949L15.2062 4.18782ZM15.8805 5.04183C15.3667 3.32106 13.8799 1.96851 11.9997 1.96851V4.96851C12.3302 4.96851 12.8035 5.22243 13.006 5.90025L15.8805 5.04183ZM11.9997 1.96851C10.1196 1.96851 8.63341 3.32095 8.11947 5.04019L10.9938 5.89942C11.1961 5.22254 11.6692 4.96851 11.9997 4.96851V1.96851ZM8.43675 4.47187C8.53833 4.35788 8.65824 4.26165 8.79154 4.18716L10.255 6.80602C10.4133 6.71752 10.5558 6.60318 10.6765 6.46773L8.43675 4.47187ZM8.95223 4.10953C7.54528 4.68873 6.41209 5.57576 5.648 6.81741C4.8923 8.04545 4.57043 9.50168 4.57043 11.1073H7.57043C7.57043 9.89399 7.81318 9.02313 8.20299 8.38969C8.58442 7.76986 9.17764 7.261 10.0943 6.88366L8.95223 4.10953ZM4.57043 11.1073C4.57043 12.5955 4.43545 13.3333 4.27294 13.7815C4.12193 14.1981 3.92151 14.4565 3.4601 15.0135L5.77031 16.9274C6.21641 16.3889 6.7436 15.7687 7.09333 14.804C7.43156 13.871 7.57043 12.7249 7.57043 11.1073H4.57043ZM3.46042 15.0131C3.39664 15.09 3.32403 15.1773 3.2502 15.2681L5.57715 17.1616C5.64014 17.0842 5.70189 17.0099 5.76998 16.9278L3.46042 15.0131ZM3.259 15.2574C2.89934 15.6911 2.67147 16.2188 2.60235 16.778L5.57969 17.146C5.5785 17.1557 5.57456 17.1648 5.56835 17.1723L3.259 15.2574ZM2.60235 16.778C2.53323 17.3372 2.62576 17.9045 2.86898 18.4128L5.57509 17.1178C5.57929 17.1266 5.58089 17.1364 5.57969 17.146L2.60235 16.778ZM2.86692 18.4084C3.383 19.4958 4.47099 20.1336 5.63687 20.1336V17.1336C5.59793 17.1336 5.5804 17.1237 5.57745 17.1219C5.57547 17.1207 5.57551 17.1204 5.57645 17.1214C5.57752 17.1226 5.57773 17.1233 5.57715 17.1221L2.86692 18.4084ZM5.63687 20.1336H18.3671V17.1336H5.63687V20.1336ZM18.3671 20.1336C19.5344 20.1336 20.6139 19.4929 21.1293 18.4154L18.423 17.1209C18.422 17.1231 18.4216 17.1232 18.4223 17.1224C18.4229 17.1218 18.4228 17.1221 18.4211 17.1232C18.4189 17.1245 18.4033 17.1336 18.3671 17.1336V20.1336ZM21.1282 18.4178C21.3725 17.9095 21.4658 17.3418 21.3973 16.782L18.4196 17.1465C18.4184 17.137 18.42 17.1272 18.4242 17.1185L21.1282 18.4178ZM21.3973 16.782C21.3288 16.2223 21.1012 15.6939 20.7416 15.2595L18.4308 17.1726C18.4246 17.1652 18.4207 17.1561 18.4196 17.1465L21.3973 16.782ZM12.0009 23.4319C12.8672 23.4312 13.7172 23.196 14.4606 22.7514L12.9207 20.1767C12.642 20.3435 12.3233 20.4316 11.9985 20.4319L12.0009 23.4319ZM14.4606 22.7514C15.2041 22.3067 15.8133 21.6691 16.2237 20.9062L13.5818 19.4849C13.4279 19.771 13.1995 20.01 12.9207 20.1767L14.4606 22.7514ZM16.2288 20.8968C16.363 20.643 16.4293 20.3587 16.4212 20.0717L13.4224 20.156C13.4159 19.9259 13.4691 19.6979 13.5768 19.4943L16.2288 20.8968ZM16.4212 20.0717C16.4132 19.7847 16.331 19.5046 16.1827 19.2587L13.6137 20.808C13.4948 20.6108 13.4289 20.3862 13.4224 20.156L16.4212 20.0717ZM16.1827 19.2587C16.0344 19.0129 15.8251 18.8095 15.5749 18.6684L14.1011 21.2814C13.9005 21.1683 13.7326 21.0052 13.6137 20.808L16.1827 19.2587ZM15.5749 18.6684C15.3248 18.5274 15.0425 18.4534 14.7554 18.4537L14.7584 21.4537C14.5281 21.4539 14.3017 21.3946 14.1011 21.2814L15.5749 18.6684ZM14.7569 18.4537H9.24341V21.4537H14.7569V18.4537ZM9.24868 18.4537C8.96117 18.4527 8.67831 18.5261 8.42765 18.6669L9.89658 21.2827C9.69556 21.3955 9.46872 21.4545 9.23815 21.4537L9.24868 18.4537ZM8.42765 18.6669C8.17698 18.8077 7.96703 19.0109 7.81824 19.257L10.3853 20.8094C10.266 21.0067 10.0976 21.1698 9.89658 21.2827L8.42765 18.6669ZM7.81824 19.257C7.66946 19.503 7.58693 19.7833 7.57867 20.0707L10.5774 20.1569C10.5708 20.3873 10.5046 20.6122 10.3853 20.8094L7.81824 19.257ZM7.57867 20.0707C7.57041 20.3581 7.63673 20.6427 7.77112 20.8968L10.4231 19.4943C10.5309 19.6981 10.5841 19.9264 10.5774 20.1569L7.57867 20.0707ZM7.77613 20.9062C8.1865 21.669 8.79565 22.3066 9.53899 22.7512L11.079 20.1767C10.8003 20.01 10.5719 19.7709 10.4181 19.4849L7.77613 20.9062ZM9.53899 22.7512C10.2823 23.1959 11.1321 23.4311 11.9983 23.4319L12.0011 20.4319C11.6764 20.4316 11.3577 20.3434 11.079 20.1767L9.53899 22.7512Z" fill="#4A2502" mask="url(#path-1-inside-1_5915_65746)"/>
</svg>
