<svg width="21" height="21" viewBox="0 0 21 21" fill="none" xmlns="http://www.w3.org/2000/svg">
<ellipse cx="10.9667" cy="10.8164" rx="9.99994" ry="10" fill="#E1A733"/>
<path d="M14.7589 8.75734C15.0772 8.43902 15.0772 7.92292 14.7589 7.6046L14.5854 7.43112C14.2671 7.1128 13.751 7.1128 13.4327 7.43112L10.9881 9.87577L8.54346 7.43112C8.22515 7.1128 7.70905 7.1128 7.39073 7.43112L7.21725 7.6046C6.89894 7.92292 6.89894 8.43902 7.21725 8.75734L9.66188 11.202L7.21725 13.6466C6.89894 13.9649 6.89894 14.481 7.21725 14.7994L7.39074 14.9728C7.70905 15.2912 8.22514 15.2912 8.54346 14.9728L10.9881 12.5282L13.4327 14.9728C13.751 15.2912 14.2671 15.2912 14.5854 14.9728L14.7589 14.7994C15.0772 14.481 15.0772 13.9649 14.7589 13.6466L12.3143 11.202L14.7589 8.75734Z" fill="white"/>
</svg>
