<svg width="16" height="17" viewBox="0 0 16 17" fill="none" xmlns="http://www.w3.org/2000/svg">
<path d="M1.83268 13.3668V13.3668C1.18835 13.3668 0.666016 12.8445 0.666016 12.2002L0.666016 10.0335C0.666016 8.92894 1.56145 8.03351 2.66602 8.03351H11.1845C13.4755 8.03351 15.3327 9.8907 15.3327 12.1817V12.1817C15.3327 12.8362 14.8021 13.3668 14.1475 13.3668H13.2976" stroke="#4A2502"/>
<path d="M2 6.80548C2 4.90639 3.53951 3.36688 5.4386 3.36688H6.66667C9.244 3.36688 11.3333 5.45622 11.3333 8.03355V8.03355H2V6.80548Z" stroke="#4A2502"/>
<line x1="5.83398" y1="3.86688" x2="5.83398" y2="7.53355" stroke="#4A2502" stroke-linecap="round"/>
<line x1="8.83398" y1="9.86688" x2="7.16732" y2="9.86688" stroke="#4A2502" stroke-linecap="round"/>
<line x1="9.5" y1="13.2002" x2="5.83333" y2="13.2002" stroke="#4A2502" stroke-linecap="round"/>
<path d="M5.50065 13.0335C5.50065 14.0461 4.67984 14.8669 3.66732 14.8669C2.6548 14.8669 1.83398 14.0461 1.83398 13.0335C1.83398 12.021 2.6548 11.2002 3.66732 11.2002C4.67984 11.2002 5.50065 12.021 5.50065 13.0335Z" stroke="#4A2502"/>
<circle cx="11.6673" cy="13.0335" r="1.83333" stroke="#4A2502"/>
</svg>
