<svg width="20" height="20" viewBox="0 0 20 20" fill="none" xmlns="http://www.w3.org/2000/svg">
  <path
    d="M15.8333 1.66666C16.2754 1.66666 16.6993 1.84225 17.0118 2.15481C17.3244 2.46737 17.5 2.8913 17.5 3.33332V13.3333C17.5 13.7754 17.3244 14.1993 17.0118 14.5118C16.6993 14.8244 16.2754 15 15.8333 15H14.1667V16.6667C14.1667 17.1087 13.9911 17.5326 13.6785 17.8452C13.366 18.1577 12.942 18.3333 12.5 18.3333H4.16667C3.72464 18.3333 3.30072 18.1577 2.98816 17.8452C2.67559 17.5326 2.5 17.1087 2.5 16.6667V6.66666C2.5 6.22463 2.67559 5.80071 2.98816 5.48815C3.30072 5.17558 3.72464 4.99999 4.16667 4.99999H5.83333V3.33332C5.83333 2.8913 6.00893 2.46737 6.32149 2.15481C6.63405 1.84225 7.05797 1.66666 7.5 1.66666H15.8333ZM8.33333 12.5H6.66667C6.45427 12.5002 6.24997 12.5816 6.09553 12.7274C5.94108 12.8732 5.84814 13.0725 5.83569 13.2845C5.82324 13.4965 5.89223 13.7053 6.02855 13.8682C6.16488 14.0311 6.35825 14.1357 6.56917 14.1608L6.66667 14.1667H8.33333C8.54573 14.1664 8.75003 14.0851 8.90447 13.9393C9.05892 13.7935 9.15186 13.5942 9.16431 13.3822C9.17676 13.1701 9.10777 12.9613 8.97145 12.7985C8.83512 12.6356 8.64175 12.5309 8.43083 12.5058L8.33333 12.5ZM15.8333 3.33332H7.5V4.99999H12.5C12.942 4.99999 13.366 5.17558 13.6785 5.48815C13.9911 5.80071 14.1667 6.22463 14.1667 6.66666V13.3333H15.8333V3.33332ZM10 9.16666H6.66667C6.44565 9.16666 6.23369 9.25445 6.07741 9.41073C5.92113 9.56702 5.83333 9.77898 5.83333 9.99999C5.83333 10.221 5.92113 10.433 6.07741 10.5892C6.23369 10.7455 6.44565 10.8333 6.66667 10.8333H10C10.221 10.8333 10.433 10.7455 10.5893 10.5892C10.7455 10.433 10.8333 10.221 10.8333 9.99999C10.8333 9.77898 10.7455 9.56702 10.5893 9.41073C10.433 9.25445 10.221 9.16666 10 9.16666Z"
    fill="#4A2502" style="fill:#4A2502;fill:color(display-p3 0.2917 0.1438 0.0073);fill-opacity:1;" />
</svg>