<svg width="20" height="20" viewBox="0 0 20 20" fill="none" xmlns="http://www.w3.org/2000/svg">
<path d="M15.8333 1.66669C16.2754 1.66669 16.6993 1.84228 17.0118 2.15484C17.3244 2.4674 17.5 2.89133 17.5 3.33335V13.3334C17.5 13.7754 17.3244 14.1993 17.0118 14.5119C16.6993 14.8244 16.2754 15 15.8333 15H14.1667V16.6667C14.1667 17.1087 13.9911 17.5326 13.6785 17.8452C13.3659 18.1578 12.942 18.3334 12.5 18.3334H4.16667C3.72464 18.3334 3.30072 18.1578 2.98816 17.8452C2.67559 17.5326 2.5 17.1087 2.5 16.6667V6.66669C2.5 6.22466 2.67559 5.80074 2.98816 5.48818C3.30072 5.17562 3.72464 5.00002 4.16667 5.00002H5.83333V3.33335C5.83333 2.89133 6.00893 2.4674 6.32149 2.15484C6.63405 1.84228 7.05797 1.66669 7.5 1.66669H15.8333ZM8.33333 12.5H6.66667C6.45427 12.5003 6.24997 12.5816 6.09553 12.7274C5.94108 12.8732 5.84814 13.0725 5.83569 13.2845C5.82324 13.4966 5.89223 13.7053 6.02855 13.8682C6.16488 14.0311 6.35825 14.1358 6.56917 14.1609L6.66667 14.1667H8.33333C8.54573 14.1665 8.75003 14.0851 8.90447 13.9393C9.05892 13.7935 9.15186 13.5942 9.16431 13.3822C9.17676 13.1702 9.10777 12.9614 8.97145 12.7985C8.83512 12.6356 8.64175 12.5309 8.43083 12.5059L8.33333 12.5ZM15.8333 3.33335H7.5V5.00002H12.5C12.942 5.00002 13.3659 5.17562 13.6785 5.48818C13.9911 5.80074 14.1667 6.22466 14.1667 6.66669V13.3334H15.8333V3.33335ZM10 9.16669H6.66667C6.44565 9.16669 6.23369 9.25449 6.07741 9.41077C5.92113 9.56705 5.83333 9.77901 5.83333 10C5.83333 10.221 5.92113 10.433 6.07741 10.5893C6.23369 10.7456 6.44565 10.8334 6.66667 10.8334H10C10.221 10.8334 10.433 10.7456 10.5893 10.5893C10.7455 10.433 10.8333 10.221 10.8333 10C10.8333 9.77901 10.7455 9.56705 10.5893 9.41077C10.433 9.25449 10.221 9.16669 10 9.16669Z" fill="#E9BD66" style="fill:#E9BD66;fill:color(display-p3 0.9137 0.7412 0.4000);fill-opacity:1;"/>
</svg>
