<svg width="16" height="16" viewBox="0 0 16 16" fill="none" xmlns="http://www.w3.org/2000/svg">
<path fill-rule="evenodd" clip-rule="evenodd" d="M3.81606 4.63408L4.7171 12.8458C4.77076 13.3347 5.1999 13.7059 5.71159 13.7059H10.3869C10.9025 13.7059 11.3336 13.3292 11.3824 12.8359L12.1938 4.63408H3.81606ZM3.72261 12.9465C3.82992 13.9245 4.6882 14.6668 5.71159 14.6668H10.3869C11.4181 14.6668 12.2803 13.9134 12.3779 12.9269L13.2933 4.33984H2.70508L3.72261 12.9465Z" fill="#A59280"/>
<path fill-rule="evenodd" clip-rule="evenodd" d="M2.50227 3.13377C2.50371 3.21452 2.50527 3.30216 2.50527 3.41645V3.81211C2.50527 3.90416 2.57989 3.97878 2.67194 3.97878H13.328C13.42 3.97878 13.4946 3.90416 13.4946 3.81211V3.41645C13.4946 3.30217 13.4962 3.21453 13.4976 3.13377C13.4992 3.04644 13.5006 2.96716 13.4997 2.87095C13.4983 2.70993 13.4885 2.60677 13.4713 2.53899C13.4679 2.52541 13.4647 2.51539 13.4621 2.50824C13.4457 2.50444 13.4162 2.5 13.3679 2.5H2.63203C2.58371 2.5 2.55415 2.50444 2.53783 2.50824C2.5352 2.51539 2.532 2.52541 2.52856 2.53899C2.51137 2.60677 2.5016 2.70993 2.50015 2.87095C2.49929 2.96716 2.50071 3.04644 2.50227 3.13377ZM2.54476 2.49288C2.54477 2.49292 2.54447 2.49348 2.54379 2.49444C2.5444 2.49332 2.54474 2.49284 2.54476 2.49288ZM2.52291 2.51267C2.52178 2.51329 2.52116 2.51355 2.52113 2.51352C2.5211 2.51349 2.52166 2.51318 2.52291 2.51267ZM13.4788 2.51352C13.4787 2.51355 13.4781 2.51329 13.477 2.51267C13.4782 2.51318 13.4788 2.51349 13.4788 2.51352ZM13.4561 2.49444C13.4554 2.49348 13.4551 2.49292 13.4551 2.49288C13.4552 2.49284 13.4555 2.49332 13.4561 2.49444ZM1.91932 1.71609C2.12773 1.55508 2.37936 1.5 2.63203 1.5H13.3679C13.6205 1.5 13.8722 1.55508 14.0806 1.71609C14.2907 1.87841 14.391 2.0975 14.4407 2.29318C14.4886 2.48212 14.4981 2.68438 14.4997 2.86198C14.5005 2.94807 14.4988 3.06437 14.4971 3.17666C14.4959 3.26449 14.4946 3.34988 14.4946 3.41645V3.81211C14.4946 4.45645 13.9723 4.97878 13.328 4.97878H2.67194C2.02761 4.97878 1.50527 4.45645 1.50527 3.81211V3.41645C1.50527 3.34987 1.50403 3.26448 1.50275 3.17664C1.50111 3.06436 1.49942 2.94807 1.50019 2.86198C1.50178 2.68438 1.51132 2.48212 1.55924 2.29318C1.60886 2.0975 1.70921 1.87841 1.91932 1.71609Z" fill="#A59280"/>
</svg>
