<svg width="16" height="16" viewBox="0 0 16 16" fill="none" xmlns="http://www.w3.org/2000/svg">
<path fill-rule="evenodd" clip-rule="evenodd" d="M3.86487 5.55908L4.64671 10.8138C4.71962 11.3039 5.14037 11.6667 5.63582 11.6667H10.4562C10.9571 11.6667 11.3807 11.2961 11.4473 10.7996L12.1502 5.55908H3.86487ZM3.6576 10.961C3.80342 11.9411 4.64493 12.6667 5.63582 12.6667H10.4562C11.458 12.6667 12.3052 11.9255 12.4384 10.9325L13.2933 4.55908H2.70508L3.6576 10.961Z" fill="#A59280"/>
<path fill-rule="evenodd" clip-rule="evenodd" d="M2.50227 3.80027C2.50371 3.88103 2.50527 3.96867 2.50527 4.08295V4.47862C2.50527 4.57066 2.57989 4.64528 2.67194 4.64528H13.328C13.42 4.64528 13.4946 4.57066 13.4946 4.47862V4.08295C13.4946 3.96867 13.4962 3.88103 13.4976 3.80028C13.4992 3.71295 13.5006 3.63367 13.4997 3.53745C13.4983 3.37643 13.4885 3.27327 13.4713 3.20549C13.4679 3.19191 13.4647 3.1819 13.4621 3.17474C13.4457 3.17095 13.4162 3.1665 13.3679 3.1665H2.63203C2.58371 3.1665 2.55415 3.17095 2.53783 3.17474C2.5352 3.1819 2.532 3.19191 2.52856 3.20549C2.51137 3.27327 2.5016 3.37643 2.50015 3.53745C2.49929 3.63366 2.50071 3.71294 2.50227 3.80027ZM2.54476 3.15939C2.54477 3.15943 2.54447 3.15998 2.54379 3.16094C2.5444 3.15983 2.54474 3.15935 2.54476 3.15939ZM2.52291 3.17917C2.52178 3.17979 2.52116 3.18005 2.52113 3.18002C2.5211 3.17999 2.52166 3.17968 2.52291 3.17917ZM13.4788 3.18002C13.4787 3.18005 13.4781 3.17979 13.477 3.17917C13.4782 3.17968 13.4788 3.17999 13.4788 3.18002ZM13.4561 3.16094C13.4554 3.15998 13.4551 3.15943 13.4551 3.15939C13.4552 3.15935 13.4555 3.15983 13.4561 3.16094ZM1.91932 2.3826C2.12773 2.22158 2.37936 2.1665 2.63203 2.1665H13.3679C13.6205 2.1665 13.8722 2.22158 14.0806 2.3826C14.2907 2.54492 14.391 2.764 14.4407 2.95968C14.4886 3.14863 14.4981 3.35089 14.4997 3.52849C14.5005 3.61458 14.4988 3.73087 14.4971 3.84316C14.4959 3.93099 14.4946 4.01638 14.4946 4.08295V4.47862C14.4946 5.12295 13.9723 5.64528 13.328 5.64528H2.67194C2.02761 5.64528 1.50527 5.12295 1.50527 4.47862V4.08295C1.50527 4.01638 1.50403 3.93099 1.50275 3.84315C1.50111 3.73086 1.49942 3.61457 1.50019 3.52849C1.50178 3.35089 1.51132 3.14863 1.55924 2.95968C1.60886 2.764 1.70921 2.54492 1.91932 2.3826Z" fill="#A59280"/>
</svg>
