<svg width="16" height="17" viewBox="0 0 16 17" fill="none" xmlns="http://www.w3.org/2000/svg">
<rect x="4.66602" y="10.0335" width="2.66667" height="4.66667" stroke="#4A2502" stroke-linecap="round" stroke-linejoin="round"/>
<rect x="9.33398" y="10.0335" width="2" height="2" stroke="#4A2502" stroke-linecap="round" stroke-linejoin="round"/>
<path d="M13.3327 8.03351V14.7002H2.66602V8.03351" stroke="#4A2502" stroke-linecap="round" stroke-linejoin="round"/>
<path d="M10.0007 5.36688H14.6673L12.4451 3.36688H9.11176M10.0007 5.36688L9.11176 3.36688M10.0007 5.36688H5.33398M9.11176 3.36688H6.66732M5.33398 5.36688H1.33398L3.55621 3.36688H6.66732M5.33398 5.36688L6.66732 3.36688" stroke="#4A2502" stroke-linecap="round" stroke-linejoin="round"/>
<path d="M14.6667 5.36688V5.70022C14.6667 6.98888 13.622 8.03355 12.3333 8.03355V8.03355C11.0447 8.03355 10 6.98888 10 5.70022V5.36688" stroke="#4A2502" stroke-linecap="round" stroke-linejoin="round"/>
<path d="M10.0007 5.36688V5.70022C10.0007 6.98888 8.95598 8.03355 7.66732 8.03355V8.03355C6.37865 8.03355 5.33398 6.98888 5.33398 5.70022V5.36688" stroke="#4A2502" stroke-linecap="round" stroke-linejoin="round"/>
<path d="M5.33398 5.36688V6.03355C5.33398 7.13812 4.43855 8.03355 3.33398 8.03355V8.03355C2.22941 8.03355 1.33398 7.13812 1.33398 6.03355V5.36688" stroke="#4A2502" stroke-linecap="round" stroke-linejoin="round"/>
</svg>
