<svg width="81" height="61" viewBox="0 0 81 61" fill="none" xmlns="http://www.w3.org/2000/svg">
<rect x="0.5" y="0.700195" width="80" height="60" rx="6" fill="#F8E9CC"/>
<path d="M38.0879 42.9782V50.2307C38.0879 51.5424 39.1536 52.6081 40.4653 52.6081C41.777 52.6081 42.8427 51.5424 42.8427 50.2307V42.9782" stroke="#4A2502" stroke-width="1.0573" stroke-miterlimit="10" stroke-linecap="round"/>
<path d="M31.9668 30.7796C31.9668 35.4743 35.7707 39.2782 40.4654 39.2782C45.1601 39.2782 48.964 35.4743 48.964 30.7796V18.0618C48.964 13.367 45.1601 9.56317 40.4654 9.56317C35.7707 9.56317 31.9668 13.367 31.9668 18.0618" stroke="#4A2502" stroke-width="1.0573" stroke-linecap="round" stroke-linejoin="round"/>
<path d="M38.8353 25.3697C38.8353 25.3697 38.6932 22.484 41.3712 22.484C44.0492 22.484 43.9618 25.55 43.9618 25.55C43.9618 26.9491 45.0986 28.0859 46.4977 28.0859C47.8968 28.0859 49.0336 26.9491 49.0336 25.55V22.473" stroke="#4A2502" stroke-width="0.88108" stroke-miterlimit="10" stroke-linecap="round"/>
<path d="M43.1887 32.6266C43.0704 33.1879 42.7409 33.7028 42.2561 34.0839C41.7714 34.4651 41.1613 34.6889 40.5297 34.7173C39.898 34.7457 39.2837 34.577 38.7912 34.2398C38.2987 33.9026 37.9584 33.4178 37.8282 32.8678" stroke="#4A2502" stroke-width="0.704864" stroke-linecap="round" stroke-linejoin="round"/>
<path d="M45.0939 28.2659C45.0461 28.59 44.8875 28.8875 44.6451 29.1079C44.4028 29.3283 44.0915 29.458 43.7644 29.4749C43.4372 29.4918 43.1143 29.3949 42.8505 29.2006C42.5867 29.0063 42.3983 28.7267 42.3174 28.4092" stroke="#4A2502" stroke-width="0.704864" stroke-linecap="round" stroke-linejoin="round"/>
<path d="M38.6447 28.2659C38.5969 28.59 38.4383 28.8875 38.1959 29.1079C37.9535 29.3283 37.6423 29.458 37.3151 29.4749C36.988 29.4918 36.665 29.3949 36.4012 29.2006C36.1375 29.0063 35.9491 28.7267 35.8682 28.4092" stroke="#4A2502" stroke-width="0.704864" stroke-linecap="round" stroke-linejoin="round"/>
</svg>
