<svg width="24" height="25" viewBox="0 0 24 25" fill="none" xmlns="http://www.w3.org/2000/svg">
<path d="M4.93366 7.62895C4.97104 7.10564 5.40648 6.7002 5.93112 6.7002H18.0689C18.5935 6.7002 19.029 7.10564 19.0663 7.62895L19.7704 17.4865C19.8945 19.2231 18.5191 20.7002 16.7781 20.7002H7.22193C5.4809 20.7002 4.10551 19.2231 4.22955 17.4865L4.93366 7.62895Z" stroke="#4A2502" stroke-width="1.5" stroke-linecap="round" stroke-linejoin="round"/>
<path d="M15 9.7002C15 11.357 13.6569 12.7002 12 12.7002C10.3431 12.7002 9 11.357 9 9.7002" stroke="#4A2502" stroke-width="1.5" stroke-linecap="round" stroke-linejoin="round"/>
<path d="M15 5.7002C15 4.04334 13.6569 2.7002 12 2.7002C10.3431 2.7002 9 4.04334 9 5.7002" stroke="#4A2502" stroke-width="1.5" stroke-linecap="round" stroke-linejoin="round"/>
</svg>
