<svg width="24" height="24" viewBox="0 0 24 24" fill="none" xmlns="http://www.w3.org/2000/svg">
<path fill-rule="evenodd" clip-rule="evenodd" d="M2.55711 4.96615C2.75014 4.82491 2.99896 4.7842 3.22693 4.85657L12.2269 7.71372C12.5384 7.8126 12.75 8.10177 12.75 8.42856V21C12.75 21.2392 12.6359 21.464 12.4429 21.6053C12.2499 21.7465 12.001 21.7872 11.7731 21.7148L4.16791 19.3005C3.02585 18.9379 2.25 17.8776 2.25 16.6794V5.57142C2.25 5.33223 2.36408 5.10739 2.55711 4.96615ZM3.75 6.5964V16.6794C3.75 17.2241 4.10266 17.706 4.62178 17.8708L11.25 19.975V8.97735L3.75 6.5964Z" fill="#4A2502" style="fill:#4A2502;fill:color(display-p3 0.2917 0.1438 0.0073);fill-opacity:1;"/>
<path fill-rule="evenodd" clip-rule="evenodd" d="M21.4429 4.96615C21.6359 5.10739 21.75 5.33223 21.75 5.57142V16.6794C21.75 17.8776 20.9742 18.9379 19.8321 19.3005L12.2269 21.7148C11.999 21.7872 11.7501 21.7465 11.5571 21.6053C11.3641 21.464 11.25 21.2392 11.25 21V8.42856C11.25 8.10177 11.4616 7.8126 11.7731 7.71372L20.7731 4.85657C21.001 4.7842 21.2499 4.82491 21.4429 4.96615ZM12.75 8.97735V19.975L19.3782 17.8708C19.8973 17.706 20.25 17.2241 20.25 16.6794V6.5964L12.75 8.97735Z" fill="#4A2502" style="fill:#4A2502;fill:color(display-p3 0.2917 0.1438 0.0073);fill-opacity:1;"/>
<path fill-rule="evenodd" clip-rule="evenodd" d="M2.30111 5.56092C2.30523 5.19853 2.52245 4.88479 2.8301 4.79689L11.3784 2.35453C11.7862 2.23801 12.2128 2.23801 12.6206 2.35453L21.1689 4.79689C21.4766 4.88479 21.6938 5.19853 21.6979 5.56092C21.702 5.92331 21.492 6.24339 21.1864 6.34039L12.1864 9.19753C12.0641 9.23636 11.9349 9.23636 11.8126 9.19753L2.81256 6.34039C2.50701 6.24339 2.29699 5.92331 2.30111 5.56092ZM5.73709 5.61191L11.9995 7.59998L18.2619 5.61191L12.2818 3.90332C12.0965 3.85035 11.9025 3.85035 11.7172 3.90332L5.73709 5.61191Z" fill="#4A2502" style="fill:#4A2502;fill:color(display-p3 0.2917 0.1438 0.0073);fill-opacity:1;"/>
</svg>
