<svg width="24" height="24" viewBox="0 0 24 24" fill="none" xmlns="http://www.w3.org/2000/svg">
<path d="M16.542 9.56995C14.6792 10.1735 13.0773 11.3933 12 13.0285C13.833 13.7172 15.8456 13.7628 17.7079 13.1578C19.5702 12.5527 21.1718 11.333 22.25 9.69845C20.4173 9.00824 18.4042 8.96257 16.542 9.56895V9.56995Z" stroke="#4A2502" style="stroke:#4A2502;stroke:color(display-p3 0.2917 0.1438 0.0073);stroke-opacity:1;" stroke-width="1.5" stroke-linecap="round" stroke-linejoin="round"/>
<path d="M16.6931 16.2801C15.5431 14.6947 13.8876 13.5481 11.9991 13.0291C11.9105 14.9853 12.4891 16.9136 13.6401 18.4978C14.7911 20.0821 16.4462 21.2283 18.3341 21.7486C18.424 19.7923 17.8453 17.8636 16.6931 16.2801Z" stroke="#4A2502" style="stroke:#4A2502;stroke:color(display-p3 0.2917 0.1438 0.0073);stroke-opacity:1;" stroke-width="1.5" stroke-linecap="round" stroke-linejoin="round"/>
<path d="M10.3591 18.4976C11.5113 16.914 12.0901 14.9854 12.0001 13.0291C10.1122 13.5493 8.45714 14.6955 7.30612 16.2798C6.15511 17.864 5.57649 19.7923 5.66511 21.7486C7.5536 21.2295 9.20909 20.0829 10.3591 18.4976Z" stroke="#4A2502" style="stroke:#4A2502;stroke:color(display-p3 0.2917 0.1438 0.0073);stroke-opacity:1;" stroke-width="1.5" stroke-linecap="round" stroke-linejoin="round"/>
<path d="M6.292 13.1585C8.15415 13.7649 10.1673 13.7192 12 13.029C10.9218 11.3945 9.32025 10.1747 7.45793 9.5697C5.59562 8.96467 3.58301 9.01027 1.75 9.69901C2.82714 11.3346 4.42903 12.5547 6.292 13.1585Z" stroke="#4A2502" style="stroke:#4A2502;stroke:color(display-p3 0.2917 0.1438 0.0073);stroke-opacity:1;" stroke-width="1.5" stroke-linecap="round" stroke-linejoin="round"/>
<path d="M10.1133 7.63995C10.1117 9.59859 10.777 11.4994 11.9998 13.0295C13.2212 11.4989 13.8865 9.59887 13.8865 7.6407C13.8865 5.68254 13.2212 3.78247 11.9998 2.25195C10.7772 3.7819 10.1118 5.6825 10.1133 7.64095V7.63995Z" stroke="#4A2502" style="stroke:#4A2502;stroke:color(display-p3 0.2917 0.1438 0.0073);stroke-opacity:1;" stroke-width="1.5" stroke-linecap="round" stroke-linejoin="round"/>
</svg>
