<svg width="24" height="25" viewBox="0 0 24 25" fill="none" xmlns="http://www.w3.org/2000/svg">
<path d="M7.78516 12.5482C7.78516 14.8672 9.66413 16.7462 11.9832 16.7462C14.3022 16.7462 16.1812 14.8672 16.1812 12.5482V8.266C16.1812 5.94697 14.3022 4.06799 11.9832 4.06799C9.66413 4.06799 7.78516 5.94697 7.78516 8.266" stroke="#4A2502" stroke-linecap="round" stroke-linejoin="round"/>
<path d="M11.1432 10.8748C11.1432 10.8748 11.073 9.44937 12.3959 9.44937C13.7187 9.44937 13.6755 10.9639 13.6755 10.9639C13.6755 11.655 14.2371 12.2165 14.9282 12.2165C15.6193 12.2165 16.1808 11.655 16.1808 10.9639V9.44397" stroke="#4A2502" stroke-miterlimit="10" stroke-linecap="round"/>
<path d="M10.8086 18.5747V22.1572C10.8086 22.8051 11.335 23.3315 11.983 23.3315C12.6309 23.3315 13.1573 22.8051 13.1573 22.1572V18.5747" stroke="#4A2502" stroke-miterlimit="10" stroke-linecap="round"/>
</svg>
