<svg  width="24" height="24" viewBox="0 0 24 24" fill="none" xmlns="http://www.w3.org/2000/svg">
<path d="M16.4896 2.34962L12.0423 4.16189L7.59496 2.34962L6.63666 4.4684L4.81836 5.47237C6.99317 7.82658 8.5658 8.28796 12.0423 7.4793C15.5188 8.28796 17.0914 7.82657 19.2662 5.47237L17.4479 4.4684L16.4896 2.34962Z" stroke="#4A2502" style="stroke:#4A2502;stroke:color(display-p3 0.2917 0.1438 0.0073);stroke-opacity:1;" stroke-width="1.5" stroke-linejoin="round"/>
<line x1="12.041" y1="5.22217" x2="12.041" y2="2.52989" stroke="#4A2502" style="stroke:#4A2502;stroke:color(display-p3 0.2917 0.1438 0.0073);stroke-opacity:1;" stroke-width="1.5" stroke-linecap="round"/>
<path d="M12.2461 21.3539C15.2429 21.3539 18.5485 16.5119 21.1912 12.6927C23.834 8.87347 19.4376 6.40649 19.4376 6.40649" stroke="#4A2502" style="stroke:#4A2502;stroke:color(display-p3 0.2917 0.1438 0.0073);stroke-opacity:1;" stroke-width="1.5" stroke-linecap="round" stroke-linejoin="round"/>
<path d="M12.2458 21.3539C9.24897 21.3539 5.94343 16.5119 3.30063 12.6927C0.657843 8.87347 5.05426 6.40649 5.05426 6.40649" stroke="#4A2502" style="stroke:#4A2502;stroke:color(display-p3 0.2917 0.1438 0.0073);stroke-opacity:1;" stroke-width="1.5" stroke-linecap="round" stroke-linejoin="round"/>
</svg>
